<?xml version="1.0" encoding="UTF-8"?>
<svg width="18px" height="18px" viewBox="0 0 18 18" version="1.1" xmlns="http://www.w3.org/2000/svg" xmlns:xlink="http://www.w3.org/1999/xlink">
    <!-- Generator: Sketch 46.2 (44496) - http://www.bohemiancoding.com/sketch -->
    <title>ic_zoom_in_24px</title>
    <desc>Created with Sketch.</desc>
    <defs></defs>
    <g id="Welcome" stroke="none" stroke-width="1" fill="none" fill-rule="evenodd">
        <g id="assets" transform="translate(-1114.000000, -31.000000)">
            <g id="ic_zoom_in_24px" transform="translate(1111.000000, 28.000000)">
                <polygon id="Shape" points="0 0 24 0 24 24 0 24"></polygon>
                <path d="M15.5,14 L15.5,14 L20.49,19 L19,20.49 L14,15.5 L14,14.71 L13.73,14.43 C12.59,15.41 11.11,16 9.5,16 C5.91,16 3,13.09 3,9.5 C3,5.91 5.91,3 9.5,3 C13.09,3 16,5.91 16,9.5 C16,11.11 15.41,12.59 14.43,13.73 L14.71,14 L15.5,14 Z M9.5,14 C11.99,14 14,11.99 14,9.5 C14,7.01 11.99,5 9.5,5 C7.01,5 5,7.01 5,9.5 C5,11.99 7.01,14 9.5,14 Z" id="Shape" fill="#80828B"></path>
            </g>
        </g>
    </g>
</svg>