<?xml version="1.0" encoding="UTF-8"?>
<svg width="19px" height="21px" viewBox="0 0 19 21" version="1.1" xmlns="http://www.w3.org/2000/svg" xmlns:xlink="http://www.w3.org/1999/xlink">
    <!-- Generator: Sketch 46.2 (44496) - http://www.bohemiancoding.com/sketch -->
    <title>ic_structure</title>
    <desc>Created with Sketch.</desc>
    <defs></defs>
    <g id="Welcome" stroke="none" stroke-width="1" fill="none" fill-rule="evenodd">
        <g id="assets" transform="translate(-303.000000, -477.000000)">
            <g id="ic_account_balance_24px" transform="translate(301.000000, 476.000000)">
                <polygon id="Shape" points="0 0 24 0 24 24 0 24"></polygon>
                <path d="M4,10 L4,17 L7,17 L7,10 L4,10 L4,10 Z M10,10 L10,17 L13,17 L13,10 L10,10 L10,10 Z M2,22 L21,22 L21,19 L2,19 L2,22 L2,22 Z M16,10 L16,17 L19,17 L19,10 L16,10 L16,10 Z M11.5,1 L2,6 L2,8 L21,8 L21,6 L11.5,1 L11.5,1 Z" id="Shape" fill="#0054A6"></path>
            </g>
        </g>
    </g>
</svg>