<?xml version="1.0" encoding="UTF-8"?>
<svg width="145px" height="145px" viewBox="0 0 145 145" version="1.1" xmlns="http://www.w3.org/2000/svg" xmlns:xlink="http://www.w3.org/1999/xlink">
    <!-- Generator: Sketch 46.2 (44496) - http://www.bohemiancoding.com/sketch -->
    <title>key</title>
    <desc>Created with Sketch.</desc>
    <defs></defs>
    <g id="Welcome" stroke="none" stroke-width="1" fill="none" fill-rule="evenodd" opacity="0.499943388">
        <g id="assets" transform="translate(-459.000000, -237.000000)">
            <g id="Group-2" transform="translate(459.000000, 237.000000)">
                <circle id="Oval-7" stroke="#0071BC" cx="72.5" cy="72.5" r="72"></circle>
                <g id="key" transform="translate(49.000000, 36.000000)" fill-rule="nonzero" fill="#0071BC">
                    <path d="M29.0700412,29.7418736 C37.3023985,29.7418736 44,23.0707495 44,14.8709368 C44,6.67112418 37.3025603,0 29.0700412,0 L14.9299588,0 C6.69760153,0 0,6.67112418 0,14.8709368 C0,23.0707495 6.69760153,29.7418736 14.9299588,29.7418736 L17.9713067,29.7418736 L17.9713067,72.7908497 C17.9713067,73.4586231 18.5148323,74 19.185256,74 L24.8149058,74 C25.4853296,74 26.0288552,73.4586231 26.0288552,72.7908497 L26.0288552,72.0653595 L36.7108005,72.0653595 C37.3812242,72.0653595 37.9247499,71.5239826 37.9247499,70.8562092 L37.9247499,63.4400871 C37.9247499,62.7723137 37.3812242,62.2309368 36.7108005,62.2309368 L32.2110948,62.2309368 L32.2110948,57.3137255 C32.2110948,56.6459521 31.6675692,56.1045752 30.9971454,56.1045752 L26.0286933,56.1045752 L26.0286933,29.7418736 L29.0700412,29.7418736 Z M2.4277369,14.8709368 C2.4277369,8.00457516 8.03618305,2.41830065 14.9297969,2.41830065 L29.0700412,2.41830065 C35.9636551,2.41830065 41.5721012,8.00457516 41.5721012,14.8709368 C41.5721012,21.7372985 35.9636551,27.323573 29.0700412,27.323573 L14.9299588,27.323573 C8.03618305,27.323573 2.4277369,21.7374597 2.4277369,14.8709368 Z M29.7830341,58.5228758 L29.7830341,63.4400871 C29.7830341,64.1078606 30.3265597,64.6492375 30.9969835,64.6492375 L35.4966892,64.6492375 L35.4966892,69.6470588 L26.0286933,69.6470588 L26.0286933,58.5228758 L29.7830341,58.5228758 Z M23.6007946,71.5816993 L20.3990436,71.5816993 L20.3990436,29.7418736 L23.6007946,29.7418736 L23.6007946,71.5816993 Z" id="Shape"></path>
                    <path d="M36.9032258,14.9423077 C36.9032258,10.6265397 33.3835828,7.11538462 29.0573819,7.11538462 L14.9426181,7.11538462 C10.6164172,7.11538462 7.09677419,10.6265397 7.09677419,14.9423077 C7.09677419,19.2580757 10.6164172,22.7692308 14.9426181,22.7692308 L29.0575434,22.7692308 C33.3835828,22.7692308 36.9032258,19.2580757 36.9032258,14.9423077 Z M9.52032566,14.9423077 C9.52032566,11.9596633 11.9527635,9.5330915 14.9426181,9.5330915 L29.0575434,9.5330915 C32.0473981,9.5330915 34.4798359,11.9596633 34.4798359,14.9423077 C34.4798359,17.9249521 32.0473981,20.3515239 29.0575434,20.3515239 L14.9426181,20.3515239 C11.9527635,20.3515239 9.52032566,17.9249521 9.52032566,14.9423077 Z" id="Shape"></path>
                </g>
            </g>
        </g>
    </g>
</svg>